<svg width="24" height="24" viewBox="0 0 24 24" fill="none" xmlns="http://www.w3.org/2000/svg">
<path fill-rule="evenodd" clip-rule="evenodd" d="M12 3.25C7.17525 3.25 3.25 7.1752 3.25 11.9999C3.25 16.8248 7.17525 20.75 12 20.75C16.8247 20.75 20.75 16.8248 20.75 11.9999C20.75 7.1752 16.8247 3.25 12 3.25ZM11.9999 23C5.9346 23 1 18.0654 1 11.9999C1 5.9346 5.9346 1 11.9999 1C18.0652 1 22.9998 5.9346 22.9998 11.9999C22.9998 18.0654 18.0652 23 11.9999 23Z" fill="#122C68"/>
<rect x="10.8721" y="9.3916" width="1.9744" height="9.37838" rx="0.987198" fill="#122C68"/>
<path fill-rule="evenodd" clip-rule="evenodd" d="M11.8592 8.1032C12.6773 8.1032 13.34 7.44024 13.34 6.62257C13.34 5.80456 12.6773 5.1416 11.8592 5.1416C11.0411 5.1416 10.3784 5.80456 10.3784 6.62257C10.3784 7.44024 11.0411 8.1032 11.8592 8.1032Z" fill="#122C68"/>
</svg>
