<svg width="24" height="24" viewBox="0 0 24 24" fill="none" xmlns="http://www.w3.org/2000/svg">
<path d="M17.377 5.27832C17.7482 4.9071 18.3505 4.9071 18.7217 5.27832C19.0928 5.64955 19.0929 6.25184 18.7217 6.62305L13.3447 12L18.7217 17.377C19.0929 17.7482 19.0929 18.3505 18.7217 18.7217C18.3505 19.0929 17.7482 19.0929 17.377 18.7217L12 13.3447L6.62305 18.7217C6.25183 19.0929 5.64954 19.0929 5.27832 18.7217C4.9071 18.3505 4.9071 17.7482 5.27832 17.377L10.6553 12L5.27832 6.62305C4.90712 6.25184 4.90716 5.64955 5.27832 5.27832C5.64954 4.9071 6.25183 4.9071 6.62305 5.27832L12 10.6553L17.377 5.27832Z" fill="#333333"/>
</svg>
